HIERARCHY
ROOT Hips
{
  OFFSET -43.3411 73.6987 0
  CHANNELS 6 Xposition Yposition Zposition Zrotation Xrotation Yrotation
  JOINT Bip01_Pelvis
  {
    OFFSET 0 0 0
    CHANNELS 6 Xposition Yposition Zposition Zrotation Xrotation Yrotation
    JOINT BN_Tail_01
    {
      OFFSET -18.6385 -9.591 -2.032e-005
      CHANNELS 6 Xposition Yposition Zposition Zrotation Xrotation Yrotation
      JOINT BN_Tail_02
      {
        OFFSET 20.9743 0 0
        CHANNELS 6 Xposition Yposition Zposition Zrotation Xrotation Yrotation
        JOINT BN_Tail_03
        {
          OFFSET 20.3015 0 0
          CHANNELS 6 Xposition Yposition Zposition Zrotation Xrotation Yrotation
          JOINT BN_Tail_04
          {
            OFFSET 21.6394 -9.91821e-005 0
            CHANNELS 6 Xposition Yposition Zposition Zrotation Xrotation Yrotation
            End Site
            {
              OFFSET 0 0 0
            }
          }
        }
      }
    }
    JOINT Bip01_Spine
    {
      OFFSET 22.1878 -0.659386 3.048e-005
      CHANNELS 6 Xposition Yposition Zposition Zrotation Xrotation Yrotation
      JOINT Bip01_R_Thigh
      {
        OFFSET -22.1873 0.677109 -17.1024
        CHANNELS 6 Xposition Yposition Zposition Zrotation Xrotation Yrotation
        JOINT Bip01_R_Calf
        {
          OFFSET 34.2647 0 0
          CHANNELS 6 Xposition Yposition Zposition Zrotation Xrotation Yrotation
          JOINT Bip01_R_HorseLink
          {
            OFFSET 20.4429 0 0
            CHANNELS 6 Xposition Yposition Zposition Zrotation Xrotation Yrotation
            JOINT Bip01_R_Foot
            {
              OFFSET 16.5673 0 0
              CHANNELS 6 Xposition Yposition Zposition Zrotation Xrotation Yrotation
              JOINT Bip01_R_Toe0
              {
                OFFSET 9.18784 6.94841 0
                CHANNELS 6 Xposition Yposition Zposition Zrotation Xrotation Yrotation
                JOINT Bip01_R_Toe0Nub
                {
                  OFFSET 1.01907 0 0
                  CHANNELS 6 Xposition Yposition Zposition Zrotation Xrotation Yrotation
                  End Site
                  {
                    OFFSET 0 0 0
                  }
                }
              }
            }
          }
        }
      }
      JOINT Bip01_L_Thigh
      {
        OFFSET -22.1873 0.67701 17.1024
        CHANNELS 6 Xposition Yposition Zposition Zrotation Xrotation Yrotation
        JOINT Bip01_L_Calf
        {
          OFFSET 34.2647 0 0
          CHANNELS 6 Xposition Yposition Zposition Zrotation Xrotation Yrotation
          JOINT Bip01_L_HorseLink
          {
            OFFSET 20.4429 0 0
            CHANNELS 6 Xposition Yposition Zposition Zrotation Xrotation Yrotation
            JOINT Bip01_L_Foot
            {
              OFFSET 16.5673 0 0
              CHANNELS 6 Xposition Yposition Zposition Zrotation Xrotation Yrotation
              JOINT Bip01_L_Toe0
              {
                OFFSET 9.18784 6.9484 1.14441e-005
                CHANNELS 6 Xposition Yposition Zposition Zrotation Xrotation Yrotation
                JOINT Bip01_L_Toe0Nub
                {
                  OFFSET 1.01907 0 0
                  CHANNELS 6 Xposition Yposition Zposition Zrotation Xrotation Yrotation
                  End Site
                  {
                    OFFSET 0 0 0
                  }
                }
              }
            }
          }
        }
      }
      JOINT Bip01_Spine1
      {
        OFFSET 39.3372 -0.0249863 0
        CHANNELS 6 Xposition Yposition Zposition Zrotation Xrotation Yrotation
        JOINT Bip01_Neck
        {
          OFFSET 34.2837 -15.5934 -4.318e-005
          CHANNELS 6 Xposition Yposition Zposition Zrotation Xrotation Yrotation
          JOINT Bip01_R_Clavicle
          {
            OFFSET -17.9452 -11.3131 -6.19287
            CHANNELS 6 Xposition Yposition Zposition Zrotation Xrotation Yrotation
            JOINT Bip01_R_UpperArm
            {
              OFFSET 17.4439 1.52588e-005 -2.28882e-005
              CHANNELS 6 Xposition Yposition Zposition Zrotation Xrotation Yrotation
              JOINT Bip01_R_Forearm
              {
                OFFSET 30.6251 1.14441e-005 0
                CHANNELS 6 Xposition Yposition Zposition Zrotation Xrotation Yrotation
                JOINT Bip01_R_Hand
                {
                  OFFSET 31.2039 0 0
                  CHANNELS 6 Xposition Yposition Zposition Zrotation Xrotation Yrotation
                  JOINT Bip01_R_Finger0
                  {
                    OFFSET 22.1039 0.255862 -0.37902
                    CHANNELS 6 Xposition Yposition Zposition Zrotation Xrotation Yrotation
                    JOINT Bip01_R_Finger0Nub
                    {
                      OFFSET 12.0552 0 0
                      CHANNELS 6 Xposition Yposition Zposition Zrotation Xrotation Yrotation
                      End Site
                      {
                        OFFSET 0 0 0
                      }
                    }
                  }
                }
              }
            }
          }
          JOINT Bip01_L_Clavicle
          {
            OFFSET -17.9452 -11.3132 6.19281
            CHANNELS 6 Xposition Yposition Zposition Zrotation Xrotation Yrotation
            JOINT Bip01_L_UpperArm
            {
              OFFSET 17.444 0 1.14441e-005
              CHANNELS 6 Xposition Yposition Zposition Zrotation Xrotation Yrotation
              JOINT Bip01_L_Forearm
              {
                OFFSET 30.6251 0 0
                CHANNELS 6 Xposition Yposition Zposition Zrotation Xrotation Yrotation
                JOINT Bip01_L_Hand
                {
                  OFFSET 31.204 0 0
                  CHANNELS 6 Xposition Yposition Zposition Zrotation Xrotation Yrotation
                  JOINT Bip01_L_Finger0
                  {
                    OFFSET 22.1039 0.255856 0.379024
                    CHANNELS 6 Xposition Yposition Zposition Zrotation Xrotation Yrotation
                    JOINT Bip01_L_Finger0Nub
                    {
                      OFFSET 12.0552 0 0
                      CHANNELS 6 Xposition Yposition Zposition Zrotation Xrotation Yrotation
                      End Site
                      {
                        OFFSET 0 0 0
                      }
                    }
                  }
                }
              }
            }
          }
          JOINT Bip01_Neck1
          {
            OFFSET 14.9359 -0.0106278 0
            CHANNELS 6 Xposition Yposition Zposition Zrotation Xrotation Yrotation
            JOINT Bip01_Head
            {
              OFFSET 14.3578 0.505501 0
              CHANNELS 6 Xposition Yposition Zposition Zrotation Xrotation Yrotation
              JOINT BN_Ear_L_01
              {
                OFFSET 3.76994 -2.35629 12.3444
                CHANNELS 6 Xposition Yposition Zposition Zrotation Xrotation Yrotation
                End Site
                {
                  OFFSET 0 0 0
                }
              }
              JOINT BN_Ear_R_01
              {
                OFFSET 3.76995 -2.35622 -12.3442
                CHANNELS 6 Xposition Yposition Zposition Zrotation Xrotation Yrotation
                End Site
                {
                  OFFSET 0 0 0
                }
              }
              JOINT BN_Mouth_01
              {
                OFFSET 11.8395 10.8645 1.27e-005
                CHANNELS 6 Xposition Yposition Zposition Zrotation Xrotation Yrotation
                JOINT BN_Tongue_01
                {
                  OFFSET 9.73752 3.21674 1.016e-005
                  CHANNELS 6 Xposition Yposition Zposition Zrotation Xrotation Yrotation
                  JOINT BN_Tongue_02
                  {
                    OFFSET 9.04304 0.053505 0
                    CHANNELS 6 Xposition Yposition Zposition Zrotation Xrotation Yrotation
                    End Site
                    {
                      OFFSET 0 0 0
                    }
                  }
                }
                JOINT BN_Beard_01
                {
                  OFFSET 6.93466 -0.751793 0
                  CHANNELS 6 Xposition Yposition Zposition Zrotation Xrotation Yrotation
                  JOINT BN_Beard_02
                  {
                    OFFSET 13.0965 1.52588e-005 0
                    CHANNELS 6 Xposition Yposition Zposition Zrotation Xrotation Yrotation
                    End Site
                    {
                      OFFSET 0 0 0
                    }
                  }
                }
              }
              JOINT Bip01_HeadNub
              {
                OFFSET 25.6158 0 0
                CHANNELS 6 Xposition Yposition Zposition Zrotation Xrotation Yrotation
                End Site
                {
                  OFFSET 0 0 0
                }
              }
            }
          }
        }
      }
    }
  }
}
MOTION
Frames:	4
Frame Time:	0.0333333
-43.3411 59.2349 1.37519 93.6155 -81.9826 -177.564 0 4.76837e-007 -7.10543e-015 -92.9344 -22.518 -81.7382 -18.6385 -9.591 1.77636e-015 -50.0638 0.326889 179.942 20.9743 -7.6294e-006 -0.000617027 22.7721 0.200624 9.55994 20.3015 1.52588e-005 0 7.73176 2.53046 16.9741 21.6393 -1.52588e-005 1.90735e-006 10.2958 5.51745 30.7461 20.0428 -9.10545 2.8725 -15.6317 8.37453 -1.21638 -22.181 0.421288 -19.7851 -73.0631 -6.8746 170.725 34.2647 -3.8147e-006 -7.6294e-006 -54.7395 5.47512e-006 7.9869e-006 20.4429 0 3.8147e-006 73.1282 4.7809e-008 3.16172e-007 16.5673 -7.62939e-006 3.8147e-006 4.22352 6.55373 9.28584 9.18749 6.94886 0.00142288 91.3444 -0.000116076 -0.00989079 1.01906 2.38418e-007 -7.10543e-015 9.18723e-008 1.39e-008 -4.35397e-007 -21.4611 5.40493 14.0472 -122.858 14.4121 -171.058 34.2647 -9.53674e-007 -1.14441e-005 -106.707 4.48338e-006 -1.73447e-005 20.4429 3.8147e-006 -1.90735e-006 110.353 5.65833e-006 -1.23377e-005 16.5673 -1.90735e-006 1.90735e-006 -29.0248 -5.21231 -4.21418 9.18784 6.94841 -3.8147e-006 89.9962 -2.5485e-007 -9.91555e-006 1.01907 0 -3.8147e-006 -179.96 -7.70905e-005 4.47544e-005 39.331 -0.0241737 -0.000957966 -14.367 2.20452 5.49386 34.2892 -15.5918 3.24249e-005 30.6637 -0.373277 -6.42843 -21.7193 -1.57143 -3.79508 145.252 -33.9749 121.481 17.444 7.10543e-015 0 42.1489 6.81146 -101.78 30.6251 -7.6294e-006 -1.90735e-006 -21.6608 9.0493e-006 3.24931e-006 31.204 -9.53676e-007 3.81469e-006 -36.996 82.3878 9.53421 22.1039 0.255847 -0.379034 -8.70663 9.6567 -42.2509 12.0552 1.90735e-006 5.96045e-008 179.96 -1.06882e-005 -1.34064e-005 -20.3324 -1.65176 8.51245 154.596 43.6801 -106.613 17.4439 -7.6294e-006 3.8147e-006 39.6788 -48.8043 87.1528 30.6251 1.90735e-006 -7.10542e-015 -63.1037 -1.56916e-005 -8.16363e-006 31.2039 -7.62941e-006 -3.81469e-006 -164.841 -73.4934 -163.205 22.1039 0.255856 0.379024 -10.7624 6.07328 10.0774 12.0552 -1.90735e-006 3.81469e-006 2.78076e-008 9.28181e-007 2.56879e-007 14.9354 -0.010643 0.000165462 1.28798 -0.903701 1.44067 14.3578 0.505493 -4.76837e-007 -21.0984 -3.53519 1.6727 3.76993 -2.35629 12.3444 -172.167 32.7141 -81.1406 3.76993 -2.35622 -12.3442 5.88483 29.4885 114.375 11.8395 10.8645 -2.38419e-007 -177.002 -3.76322 178.789 9.7375 3.21676 0 -2.85749 -1.30862e-008 -8.29174e-008 2.55461 -1.1059 -0.15377 4.77834 -2.94618 -1.72235 6.93466 -0.751774 9.53675e-007 -85.1773 -2.85033 -1.72699 13.0966 7.6294e-006 -2.38419e-007 -7.89266 -1.6355 -12.1212 25.6158 -1.42109e-014 0 -6.51514e-008 1.02264e-006 -3.06521e-008 
-43.614 59.205 1.71679 93.8135 -82.4007 -177.366 0 4.76837e-007 7.10543e-015 -92.9311 -21.9298 -82.3056 -18.6385 -9.591 -2.66454e-015 -50.1898 0.332657 -179.988 20.9743 -7.6294e-006 -0.000617027 22.6963 0.189431 9.29652 20.3015 1.52588e-005 -5.32907e-015 7.40718 2.43645 16.9548 21.6393 -1.52588e-005 1.90735e-006 10.0211 5.38333 30.7359 20.1616 -8.8972 2.68734 -15.2465 8.16435 -0.783884 -22.0648 0.437144 -19.7544 -73.7945 -7.16857 170.653 34.2647 -3.8147e-006 -7.6294e-006 -56.4092 5.24326e-006 8.13931e-006 20.4429 -4.26326e-014 3.8147e-006 73.6626 9.66434e-006 3.13876e-006 16.5673 -7.62939e-006 3.8147e-006 4.65267 5.81386 9.34205 9.18749 6.94886 0.00142288 91.3056 -7.97377e-005 -0.00699669 1.01906 2.38418e-007 0 9.18723e-008 1.39e-008 -4.35397e-007 -21.6004 5.296 14.1004 -122.697 14.2153 -170.877 34.2647 -9.53674e-007 -1.14441e-005 -105.944 -5.11902e-006 -2.00892e-005 20.4429 3.8147e-006 -1.90735e-006 110.757 5.58272e-006 -1.23963e-005 16.5673 -1.90735e-006 1.90735e-006 -30.103 -5.63215 -4.4855 9.18784 6.94841 -3.81484e-006 89.8528 -2.16572e-007 -9.91441e-006 1.01907 1.59872e-014 -3.8147e-006 -179.96 -7.70905e-005 4.47544e-005 39.3314 -0.0241737 -0.000957966 -13.5269 2.22614 4.72972 34.2892 -15.5918 3.24257e-005 31.1563 -0.65987 -6.46476 -21.7355 -1.35867 -3.78476 144.584 -34.3707 119.819 17.444 -2.84217e-014 -1.42108e-014 41.9686 6.74284 -101.217 30.6251 -7.6294e-006 -1.90735e-006 -23.9159 8.80485e-006 3.55985e-006 31.204 -9.53676e-007 3.81469e-006 -38.6381 82.3468 10.5843 22.1039 0.255847 -0.379034 -8.79287 9.6563 -40.7671 12.0552 1.90735e-006 5.96046e-008 179.96 -1.06882e-005 -1.34063e-005 -20.3404 -1.50092 8.52128 153.815 41.4364 -105.339 17.4439 -7.6294e-006 3.8147e-006 36.8576 -46.6769 84.5383 30.6251 1.90735e-006 6.39488e-014 -64.7663 -7.02705e-006 -1.18769e-005 31.2039 -7.62941e-006 -3.81469e-006 -168.838 -72.9987 -164.458 22.1039 0.255856 0.379024 -8.9296 6.7976 9.90453 12.0552 -1.90735e-006 3.81469e-006 2.78076e-008 9.28181e-007 2.56879e-007 14.9354 -0.010643 0.000165462 1.36317 -0.933129 1.57306 14.3578 0.505493 -4.77182e-007 -21.9834 -3.34942 1.11172 3.76993 -2.35629 12.3444 -171.826 31.3247 -81.7068 3.76993 -2.35622 -12.3442 6.38149 28.013 114.858 11.8395 10.8645 -2.1591e-007 -176.657 -3.76566 178.811 9.7375 3.21676 4.86852e-009 -2.85749 1.11008e-008 -7.85944e-008 2.55461 -1.1059 -0.15377 4.77834 -2.94618 -1.72235 6.93466 -0.751774 9.52537e-007 -84.3962 -1.8556 -1.57366 13.0966 7.6294e-006 -2.38419e-007 -7.89266 -1.63551 -12.1212 25.6158 -5.68435e-014 -3.77476e-015 -6.51514e-008 1.02264e-006 -3.06521e-008 
-43.9089 59.1649 2.07369 94.0374 -82.8238 -177.142 0 4.76837e-007 0 -92.9726 -21.3411 -82.9363 -18.6385 -9.591 -1.77636e-015 -50.5288 0.330243 -179.763 20.9743 -7.6294e-006 -0.000617027 22.4961 0.152983 8.58607 20.3015 1.52588e-005 -1.06581e-014 6.538 2.18152 16.8987 21.6393 -1.52588e-005 1.90735e-006 9.26444 4.9879 30.6836 20.2796 -8.68763 2.47562 -14.9018 8.01473 -0.309544 -21.9395 0.417782 -19.711 -74.4707 -7.49427 170.572 34.2647 -3.8147e-006 -7.6294e-006 -58.0401 5.01243e-006 8.28031e-006 20.4429 -2.84217e-014 3.8147e-006 74.1838 9.69358e-006 3.05609e-006 16.5673 -7.62939e-006 3.8147e-006 5.07373 5.08878 9.40245 9.18749 6.94886 0.00142288 91.2676 -4.60677e-005 -0.00415879 1.01906 2.38418e-007 0 9.18723e-008 1.39e-008 -4.35397e-007 -21.755 5.18907 14.159 -122.552 14.0009 -170.704 34.2647 -9.53674e-007 -1.14441e-005 -105.224 4.28043e-006 -1.74059e-005 20.4429 3.8147e-006 -1.90735e-006 111.166 -3.83858e-006 -8.83718e-006 16.5673 -1.90735e-006 1.90735e-006 -31.2439 -6.04798 -4.77112 9.18784 6.94841 -3.81519e-006 89.7122 -1.84424e-007 -9.91143e-006 1.01907 -2.66454e-015 -3.8147e-006 -179.96 -7.70905e-005 4.47544e-005 39.3317 -0.0241737 -0.000957966 -12.6485 2.25235 3.95006 34.2893 -15.5918 3.24263e-005 31.6594 -0.948261 -6.62767 -21.7584 -1.14044 -3.72532 143.822 -34.7029 118.006 17.444 -4.26326e-014 1.42108e-014 41.8641 6.84961 -100.631 30.6251 -7.6294e-006 -1.90735e-006 -25.8338 8.58079e-006 3.82407e-006 31.204 -9.53676e-007 3.81469e-006 -40.3838 82.2975 11.5426 22.1039 0.255847 -0.379034 -8.87652 9.64786 -39.271 12.0552 1.90735e-006 5.96046e-008 179.96 -1.06882e-005 -1.34062e-005 -20.3285 -1.34524 8.57583 153.093 39.0748 -104.186 17.4439 -7.6294e-006 3.8147e-006 34.0085 -44.9642 81.9143 30.6251 1.90735e-006 9.23705e-014 -65.6898 -5.06824e-006 -1.21235e-005 31.2039 -7.62941e-006 -3.81469e-006 -172.973 -72.4362 -165.469 22.1039 0.255856 0.379024 -6.97699 7.52562 9.68775 12.0552 -1.90735e-006 3.81469e-006 2.78076e-008 9.28181e-007 2.56879e-007 14.9354 -0.010643 0.000165463 1.43689 -0.95505 1.70711 14.3578 0.505493 -4.77703e-007 -22.9483 -3.24743 0.681855 3.76993 -2.35629 12.3444 -171.065 27.833 -83.024 3.76993 -2.35622 -12.3442 7.75987 24.3227 115.689 11.8395 10.8645 -1.90171e-007 -175.726 -3.75562 178.873 9.7375 3.21676 1.04601e-008 -2.85749 3.83209e-008 -7.36294e-008 2.55461 -1.1059 -0.15377 4.77834 -2.94618 -1.72235 6.93466 -0.751774 9.5123e-007 -83.1051 -0.828683 -1.43325 13.0966 7.6294e-006 -2.38419e-007 -7.89266 -1.6355 -12.1212 25.6158 0 1.38778e-016 -6.51514e-008 1.02264e-006 -3.06521e-008 
-44.2261 59.1168 2.44972 94.2991 -83.2621 -176.884 7.10543e-015 4.76837e-007 1.42109e-014 -93.0415 -20.7367 -83.6271 -18.6385 -9.591 0 -51.0507 0.322508 -179.407 20.9743 -7.6294e-006 -0.000617027 22.1832 0.101192 7.49525 20.3015 1.52588e-005 -1.95399e-014 5.1986 1.78552 16.7907 21.6393 -1.52588e-005 1.90735e-006 8.10208 4.36886 30.5862 20.3981 -8.47167 2.23997 -14.5766 7.90976 0.202528 -21.8046 0.373348 -19.6569 -75.1169 -7.85055 170.48 34.2647 -3.8147e-006 -7.6294e-006 -59.6566 4.77942e-006 8.41193e-006 20.4429 -4.26326e-014 3.8147e-006 74.6882 6.02048e-008 3.30886e-007 16.5673 -7.62939e-006 3.8147e-006 5.49925 4.35699 9.46883 9.18749 6.94886 0.00142288 91.2292 -1.40636e-005 -0.00129079 1.01906 2.38419e-007 0 9.18723e-008 1.39e-008 -4.35397e-007 -21.9242 5.08122 14.2225 -122.416 13.7656 -170.53 34.2647 -9.53674e-007 -1.14441e-005 -104.513 3.11148e-006 -1.77132e-005 20.4429 3.8147e-006 -1.90735e-006 111.574 5.42205e-006 -1.25118e-005 16.5673 -1.90735e-006 1.90735e-006 -32.4335 -6.48131 -5.07543 9.18784 6.94841 -3.81562e-006 89.5701 9.86774e-006 -9.83265e-006 1.01907 2.15383e-014 -3.8147e-006 -179.96 -7.70905e-005 4.47543e-005 39.332 -0.0241737 -0.000957966 -11.7175 2.27995 3.14073 34.2894 -15.5918 3.2427e-005 32.1769 -1.24363 -6.8204 -21.7814 -0.917804 -3.6528 143.025 -35.0186 116.105 17.444 -1.42109e-014 -1.42108e-014 41.8093 7.11548 -100.02 30.6251 -7.6294e-006 -1.90735e-006 -27.5332 8.36946e-006 4.05876e-006 31.204 -9.53676e-007 3.81469e-006 -42.2296 82.242 12.4332 22.1039 0.255847 -0.379034 -8.96832 9.6418 -37.7048 12.0552 1.90735e-006 5.96045e-008 179.96 -1.06883e-005 -1.34062e-005 -20.3103 -1.18652 8.64227 152.417 36.9838 -103.152 17.4439 -7.6294e-006 3.8147e-006 31.4268 -43.56 79.2682 30.6251 1.90735e-006 1.13687e-013 -65.7826 -5.31147e-006 -1.13926e-005 31.2039 -7.62941e-006 -3.81469e-006 -177.302 -71.7706 -166.338 22.1039 0.255856 0.379024 -5.19033 8.22396 9.47678 12.0552 -1.90735e-006 3.81469e-006 2.78076e-008 9.28181e-007 2.56879e-007 14.9354 -0.010643 0.000165463 1.51149 -0.980806 1.84419 14.3578 0.505493 -4.78313e-007 -23.9509 -3.18977 0.309583 3.76993 -2.35629 12.3444 -170.205 22.985 -84.6149 3.76993 -2.35622 -12.3442 9.84948 19.331 116.043 11.8395 10.8645 -1.60974e-007 -174.287 -3.79289 178.968 9.7375 3.21676 1.56809e-008 -2.85749 6.81058e-008 -6.89936e-008 2.55461 -1.1059 -0.15377 4.77834 -2.94618 -1.72235 6.93466 -0.751774 9.5001e-007 -81.3253 0.215285 -1.30528 13.0966 7.6294e-006 -2.38419e-007 -7.89266 -1.6355 -12.1212 25.6158 -2.84217e-014 -2.66454e-015 -6.51514e-008 1.02264e-006 -3.06521e-008 
